# xmcd
#
# Track frame offsets: 
#        150
#        25426
#        51374
#        72364
#        99333
#        126816
#        149806
#        171124
#        200689
#        222421
#        248178
#        271283
#
# Disc length: 3901 seconds
#
# Revision: 2
# Processed by: cddbd v1.5.2PL0 Copyright (c) Steve Scherf et al.
# Submitted via: ExactAudioCopy v0.99pb5
#
DISCID=c10f3b0c
DTITLE=Various Artist - Funkymix 119
DYEAR=2008
DGENRE=Hip-Hop
TTITLE0=T.I - Whatever you like (Funkymix) (75 bpm)
TTITLE1=Mike Jones - Cuddy Buddy (Funkymix) (140 bpm)
TTITLE2=Yung Berg ft. Casha - The Business (Funkymix) (133 bpm)
TTITLE3=Bow Wow ft Soulja Boy - Marco Polo (Funkymix) (70 bpm)
TTITLE4=T-Pain ft Lil Wayne - Cant believe it(Funkymix) (90 bpm)
TTITLE5=Juney Boomdata ft Marc Decoca - Wassup wit da cookies (Funkymi
TTITLE5=x) (140 bpm)
TTITLE6=Rick Ross ft Nelly and Avery Storm  - Here I am (Funkymix) (110 
TTITLE6=bpm)
TTITLE7=The Game ft Lil Wayne - My life (Funkymix) (74 bpm)
TTITLE8=E Dubb - Whooty (Funkymix) (128 bpm)
TTITLE9=VIC - Wobble (Funkymix) (95 bpm)
TTITLE10=E 40 ft Akon - Wake it up (Funkymix) (108 bpm)
TTITLE11=Slim ft Shawty Lo and Yung Joc - So fly (Funkymix) (91 bpm)
EXTD=
EXTT0=
EXTT1=
EXTT2=
EXTT3=
EXTT4=
EXTT5=
EXTT6=
EXTT7=
EXTT8=
EXTT9=
EXTT10=
EXTT11=
PLAYORDER=
